STARTFONT 2.1
FONT -Monotype-Times New Roman-Regular-I-Normal--24-240-75-75-P-121-iso8859-2
SIZE 24 75 75
FONTBOUNDINGBOX 29 28 -4 -6

STARTPROPERTIES 24
FOUNDRY "Monotype"
FAMILY_NAME "Times New Roman"
WEIGHT_NAME "Regular"
SLANT "I"
SETWIDTH_NAME "Normal"
ADD_STYLE_NAME ""
PIXEL_SIZE 24
POINT_SIZE 240
RESOLUTION_X 75
RESOLUTION_Y 75
SPACING "P"
AVERAGE_WIDTH 121
CHARSET_REGISTRY "iso8859"
CHARSET_ENCODING "2"
FACE_NAME "Times New Roman Italic ISO Latin2"
_DEC_DEVICE_FONTNAMES "PS=timesnewroman-it-lat2"
COPYRIGHT "Copyright (c) 1993 Monotype Typography Ltd."
CAP_HEIGHT 18
X_HEIGHT 12
WEIGHT 10
QUAD_WIDTH 14
DEFAULT_CHAR 160
FONT_DESCENT 6
FONT_ASCENT 22
ENDPROPERTIES

CHARS 191

STARTCHAR space
ENCODING 32
SWIDTH 250 0
DWIDTH 6 0
BBX 0 0 0 0
BITMAP
ENDCHAR

STARTCHAR exclam
ENCODING 33
SWIDTH 333 0
DWIDTH 8 0
BBX 6 18 2 0
BITMAP
04
0C
1C
18
18
18
10
10
30
20
20
20
40
00
00
C0
C0
C0
ENDCHAR

STARTCHAR quotedbl
ENCODING 34
SWIDTH 420 0
DWIDTH 10 0
BBX 7 7 4 10
BITMAP
66
E6
CE
CC
8C
88
88
ENDCHAR

STARTCHAR numbersign
ENCODING 35
SWIDTH 500 0
DWIDTH 13 0
BBX 12 18 1 -1
BITMAP
0420
0820
0840
0840
0840
1040
FFF0
1080
1080
1080
3080
FFF0
2100
2100
2100
4100
4200
4200
ENDCHAR

STARTCHAR dollar
ENCODING 36
SWIDTH 500 0
DWIDTH 13 0
BBX 11 19 1 -1
BITMAP
0080
0780
1960
3120
3120
3220
3A00
1E00
0E00
0780
0580
05C0
08C0
88C0
88C0
9180
D300
1C00
2000
ENDCHAR

STARTCHAR percent
ENCODING 37
SWIDTH 833 0
DWIDTH 21 0
BBX 19 17 2 0
BITMAP
1C0060
320080
630100
630200
C30400
C20800
C61000
4C2000
304380
008640
010C60
020C60
041860
081840
1018C0
200980
C00600
ENDCHAR

STARTCHAR ampersand
ENCODING 38
SWIDTH 778 0
DWIDTH 19 0
BBX 17 17 1 0
BITMAP
003800
00CC00
008C00
018C00
018800
01B000
01C000
078000
19CF80
70C600
E0C400
C0E800
C07000
E07000
E03000
70D880
3F0F00
ENDCHAR

STARTCHAR quoteright
ENCODING 39
SWIDTH 333 0
DWIDTH 8 0
BBX 4 5 4 12
BITMAP
30
70
30
20
C0
ENDCHAR

STARTCHAR parenleft
ENCODING 40
SWIDTH 333 0
DWIDTH 8 0
BBX 10 22 2 -5
BITMAP
00C0
0100
0200
0400
0800
1800
3000
3000
6000
6000
6000
E000
C000
C000
C000
C000
4000
4000
4000
4000
2000
2000
ENDCHAR

STARTCHAR parenright
ENCODING 41
SWIDTH 333 0
DWIDTH 8 0
BBX 10 22 -3 -5
BITMAP
0100
0100
0080
0080
0080
00C0
00C0
00C0
00C0
00C0
01C0
0180
0180
0180
0300
0300
0600
0400
0800
1000
2000
C000
ENDCHAR

STARTCHAR asterisk
ENCODING 42
SWIDTH 500 0
DWIDTH 13 0
BBX 8 10 4 7
BITMAP
18
18
DB
EF
18
6E
DB
99
18
08
ENDCHAR

STARTCHAR plus
ENCODING 43
SWIDTH 675 0
DWIDTH 17 0
BBX 13 13 3 2
BITMAP
0200
0200
0200
0200
0200
0200
FFF8
0200
0200
0200
0200
0200
0200
ENDCHAR

STARTCHAR comma
ENCODING 44
SWIDTH 250 0
DWIDTH 6 0
BBX 4 5 -1 -3
BITMAP
30
70
30
20
C0
ENDCHAR

STARTCHAR minus
ENCODING 45
SWIDTH 675 0
DWIDTH 17 0
BBX 13 1 3 8
BITMAP
FFF8
ENDCHAR

STARTCHAR period
ENCODING 46
SWIDTH 250 0
DWIDTH 6 0
BBX 2 3 1 0
BITMAP
C0
C0
C0
ENDCHAR

STARTCHAR slash
ENCODING 47
SWIDTH 278 0
DWIDTH 7 0
BBX 11 17 -1 0
BITMAP
0060
00C0
0080
0100
0100
0200
0200
0400
0400
0800
0800
1000
1000
2000
2000
4000
C000
ENDCHAR

STARTCHAR zero
ENCODING 48
SWIDTH 500 0
DWIDTH 13 0
BBX 11 17 1 0
BITMAP
0380
0CC0
1840
3060
3060
7060
6060
6060
E0E0
E0C0
C0C0
C1C0
C180
C180
4300
4600
3800
ENDCHAR

STARTCHAR one
ENCODING 49
SWIDTH 500 0
DWIDTH 13 0
BBX 9 17 1 0
BITMAP
0780
0380
0180
0300
0300
0300
0300
0600
0600
0600
0C00
0C00
0C00
0C00
1800
1800
FE00
ENDCHAR

STARTCHAR two
ENCODING 50
SWIDTH 500 0
DWIDTH 13 0
BBX 11 17 1 0
BITMAP
0780
0FC0
10E0
1060
0060
0060
0040
00C0
0080
0100
0200
0400
0800
1000
2080
7F80
FF00
ENDCHAR

STARTCHAR three
ENCODING 51
SWIDTH 500 0
DWIDTH 13 0
BBX 10 17 1 0
BITMAP
0780
09C0
10C0
00C0
00C0
0180
0600
1E00
0700
0380
0180
0180
0180
0100
0300
E600
F800
ENDCHAR

STARTCHAR four
ENCODING 52
SWIDTH 500 0
DWIDTH 13 0
BBX 11 17 1 0
BITMAP
0020
0060
00E0
01C0
02C0
06C0
0C80
0980
1180
2180
4300
FFC0
FFC0
0200
0600
0600
0400
ENDCHAR

STARTCHAR five
ENCODING 53
SWIDTH 500 0
DWIDTH 13 0
BBX 12 17 0 0
BITMAP
03F0
07E0
0400
0800
0E00
1F00
0380
01C0
00C0
00C0
00C0
00C0
0080
0080
0100
E200
7C00
ENDCHAR

STARTCHAR six
ENCODING 54
SWIDTH 500 0
DWIDTH 13 0
BBX 12 17 1 0
BITMAP
0070
0180
0700
0E00
1C00
3800
3F00
7180
60C0
60C0
C0C0
C0C0
C1C0
C180
4380
6200
1C00
ENDCHAR

STARTCHAR seven
ENCODING 55
SWIDTH 500 0
DWIDTH 13 0
BBX 10 17 3 0
BITMAP
3FC0
7FC0
4080
8100
0100
0200
0600
0400
0C00
0800
1000
1000
2000
6000
4000
C000
8000
ENDCHAR

STARTCHAR eight
ENCODING 56
SWIDTH 500 0
DWIDTH 13 0
BBX 11 17 1 0
BITMAP
0780
0C60
1820
1820
1820
1C60
0EC0
0700
1B00
2180
61C0
C0C0
C0C0
C0C0
4080
6300
1C00
ENDCHAR

STARTCHAR nine
ENCODING 57
SWIDTH 500 0
DWIDTH 13 0
BBX 12 18 0 -1
BITMAP
0380
0460
0C20
1830
1830
3030
3030
3030
3060
3060
19E0
0EC0
0180
0380
0700
0C00
3800
C000
ENDCHAR

STARTCHAR colon
ENCODING 58
SWIDTH 333 0
DWIDTH 8 0
BBX 5 11 2 0
BITMAP
18
18
10
00
00
00
00
00
40
C0
C0
ENDCHAR

STARTCHAR semicolon
ENCODING 59
SWIDTH 333 0
DWIDTH 8 0
BBX 6 14 0 -3
BITMAP
0C
0C
0C
00
00
00
00
00
00
20
70
30
20
C0
ENDCHAR

STARTCHAR less
ENCODING 60
SWIDTH 675 0
DWIDTH 17 0
BBX 13 12 3 2
BITMAP
0018
00E0
0380
0C00
7000
C000
6000
1C00
0700
00C0
0030
0008
ENDCHAR

STARTCHAR equal
ENCODING 61
SWIDTH 675 0
DWIDTH 17 0
BBX 13 5 3 6
BITMAP
FFF8
0000
0000
0000
FFF8
ENDCHAR

STARTCHAR greater
ENCODING 62
SWIDTH 675 0
DWIDTH 17 0
BBX 13 12 3 2
BITMAP
C000
7000
0C00
0300
00E0
0018
0060
0180
0E00
3800
C000
8000
ENDCHAR

STARTCHAR question
ENCODING 63
SWIDTH 500 0
DWIDTH 13 0
BBX 9 17 2 0
BITMAP
1E00
2300
6180
6180
0180
0300
0600
0C00
1800
1000
2000
2000
0000
0000
C000
C000
C000
ENDCHAR

STARTCHAR at
ENCODING 64
SWIDTH 920 0
DWIDTH 23 0
BBX 22 23 1 -6
BITMAP
00FF00
030080
040040
080020
100010
200008
603988
406708
40C308
C18308
830608
830608
860E10
860C10
861C20
C76CC4
438704
600008
200010
100020
0C0040
030380
00FC00
ENDCHAR

STARTCHAR A
ENCODING 65
SWIDTH 611 0
DWIDTH 15 0
BBX 15 17 -1 0
BITMAP
0004
000C
000C
001C
0028
0068
0058
0098
0118
0118
0218
07F8
0818
0818
1038
2038
F8FE
ENDCHAR

STARTCHAR B
ENCODING 66
SWIDTH 611 0
DWIDTH 15 0
BBX 15 17 -1 0
BITMAP
0FF8
030C
0306
0306
0706
060E
060C
0638
0FE0
0C38
0C18
1C1C
181C
181C
1838
3870
FFC0
ENDCHAR

STARTCHAR C
ENCODING 67
SWIDTH 667 0
DWIDTH 17 0
BBX 16 17 1 0
BITMAP
00F9
0307
0C03
1C02
3802
3000
7000
6000
E000
E000
E000
E000
E000
7004
7008
3C30
0FC0
ENDCHAR

STARTCHAR D
ENCODING 68
SWIDTH 722 0
DWIDTH 18 0
BBX 18 17 0 0
BITMAP
0FF800
030600
030300
060180
060180
0601C0
0E01C0
0C01C0
0C01C0
0C0180
1C0180
180380
180300
380600
300C00
303800
FFC000
ENDCHAR

STARTCHAR E
ENCODING 69
SWIDTH 611 0
DWIDTH 15 0
BBX 17 17 -1 0
BITMAP
07FF80
018300
018100
030100
030000
030800
070800
061000
07F000
061000
0C1000
0C1000
0C0200
1C0200
180400
181C00
FFF800
ENDCHAR

STARTCHAR F
ENCODING 70
SWIDTH 611 0
DWIDTH 15 0
BBX 18 17 -1 0
BITMAP
07FFC0
018180
018080
030080
030080
030800
070800
060800
07F800
060000
0C1000
0C1000
0C0000
1C0000
180000
180000
FE0000
ENDCHAR

STARTCHAR G
ENCODING 71
SWIDTH 722 0
DWIDTH 18 0
BBX 17 17 2 0
BITMAP
00FD00
070700
0C0100
180100
380100
700000
700000
600000
E03F80
E00E00
E00C00
E00C00
601800
701800
301800
183800
07C000
ENDCHAR

STARTCHAR H
ENCODING 72
SWIDTH 722 0
DWIDTH 18 0
BBX 21 17 -1 0
BITMAP
07E1F8
0180E0
0180E0
0300C0
0300C0
0300C0
070180
060180
07FF80
060380
0E0300
0C0300
0C0300
1C0600
180600
180E00
FE3F80
ENDCHAR

STARTCHAR I
ENCODING 73
SWIDTH 333 0
DWIDTH 8 0
BBX 11 17 -1 0
BITMAP
07E0
0180
0180
0300
0300
0300
0700
0600
0600
0600
0C00
0C00
0C00
1C00
1800
1800
FE00
ENDCHAR

STARTCHAR J
ENCODING 74
SWIDTH 444 0
DWIDTH 11 0
BBX 15 17 -1 0
BITMAP
00FE
0030
0030
0070
0060
0060
00E0
00C0
00C0
00C0
0180
0180
0180
E300
E300
C600
7800
ENDCHAR

STARTCHAR K
ENCODING 75
SWIDTH 667 0
DWIDTH 17 0
BBX 19 17 -1 0
BITMAP
07E3E0
018180
018200
030400
031800
033000
064000
078000
06C000
06C000
0C6000
0C7000
0C3000
1C1800
181C00
181E00
FE3F80
ENDCHAR

STARTCHAR L
ENCODING 76
SWIDTH 556 0
DWIDTH 14 0
BBX 14 17 -1 0
BITMAP
07E0
0180
0180
0300
0300
0300
0700
0600
0600
0600
0C00
0C00
0C04
1C04
1808
1818
FFF8
ENDCHAR

STARTCHAR M
ENCODING 77
SWIDTH 833 0
DWIDTH 21 0
BBX 24 17 -1 0
BITMAP
07800F
01801C
018038
028028
028058
02C0B0
04C1B0
04C130
04C270
08C460
08C460
08C860
08D0C0
10F0C0
10E0C0
3041C0
FC47F0
ENDCHAR

STARTCHAR N
ENCODING 78
SWIDTH 667 0
DWIDTH 17 0
BBX 20 17 -1 0
BITMAP
0F01F0
0180C0
038080
02C080
02C080
02C100
046100
046100
046100
083200
083200
083A00
081C00
101C00
100C00
100C00
FC0800
ENDCHAR

STARTCHAR O
ENCODING 79
SWIDTH 722 0
DWIDTH 18 0
BBX 17 17 1 0
BITMAP
00F800
030600
060300
0C0300
180380
380380
700380
700380
600300
E00700
E00700
E00E00
E00C00
601C00
703000
306000
0F8000
ENDCHAR

STARTCHAR P
ENCODING 80
SWIDTH 611 0
DWIDTH 15 0
BBX 16 17 -1 0
BITMAP
0FFC
0386
0303
0303
0303
0707
0606
060C
07F0
0C00
0C00
0C00
1C00
1800
1800
3800
FE00
ENDCHAR

STARTCHAR Q
ENCODING 81
SWIDTH 722 0
DWIDTH 18 0
BBX 17 23 1 -6
BITMAP
00F800
030600
060300
0C0300
180380
380380
300380
700380
700300
E00700
E00700
E00600
E00E00
E01C00
601800
703000
38E000
070000
080000
300200
7E0400
FFF800
01E000
ENDCHAR

STARTCHAR R
ENCODING 82
SWIDTH 611 0
DWIDTH 15 0
BBX 15 17 -1 0
BITMAP
07F8
038E
0306
0306
0306
070E
060C
0638
06E0
0C60
0C60
0C70
1C30
1830
1838
3818
FE1E
ENDCHAR

STARTCHAR S
ENCODING 83
SWIDTH 500 0
DWIDTH 13 0
BBX 13 17 0 0
BITMAP
07C8
0C38
1818
1808
1808
1C00
0E00
0700
0380
01C0
00E0
40E0
4060
C060
C0C0
E1C0
9F00
ENDCHAR

STARTCHAR T
ENCODING 84
SWIDTH 556 0
DWIDTH 14 0
BBX 14 17 2 0
BITMAP
3FFC
638C
4304
4304
0300
0600
0600
0600
0E00
0C00
0C00
0C00
1800
1800
1800
3800
FE00
ENDCHAR

STARTCHAR U
ENCODING 85
SWIDTH 722 0
DWIDTH 18 0
BBX 18 17 3 0
BITMAP
FF0FC0
380200
380200
300200
300400
300400
600400
600400
600800
E00800
C00800
C01000
C01000
C02000
602000
70C000
1F0000
ENDCHAR

STARTCHAR V
ENCODING 86
SWIDTH 611 0
DWIDTH 15 0
BBX 15 17 3 0
BITMAP
FE3E
3818
3010
3020
3040
3040
3080
3100
3200
7200
6400
6800
7000
7000
6000
4000
4000
ENDCHAR

STARTCHAR W
ENCODING 87
SWIDTH 833 0
DWIDTH 21 0
BBX 21 17 3 0
BITMAP
FDFCF8
307060
306040
306080
30A100
316100
716200
626400
646400
646800
68F000
70D000
70E000
60C000
40C000
408000
808000
ENDCHAR

STARTCHAR X
ENCODING 88
SWIDTH 611 0
DWIDTH 15 0
BBX 20 17 -2 0
BITMAP
03F1F0
01C0C0
00C080
00C100
00E200
006400
006800
007000
003000
007000
00B000
013800
021800
041800
081C00
181C00
FC7F00
ENDCHAR

STARTCHAR Y
ENCODING 89
SWIDTH 556 0
DWIDTH 14 0
BBX 15 17 2 0
BITMAP
7E7E
1818
1810
1820
0C40
0C40
0C80
0700
0600
0600
0E00
0C00
0C00
1C00
1800
1800
FE00
ENDCHAR

STARTCHAR Z
ENCODING 90
SWIDTH 556 0
DWIDTH 14 0
BBX 15 17 0 0
BITMAP
0FFE
180E
101C
1038
0070
0060
00E0
01C0
0380
0300
0600
0E00
1C08
3808
3008
7030
FFF0
ENDCHAR

STARTCHAR bracketleft
ENCODING 91
SWIDTH 389 0
DWIDTH 10 0
BBX 12 22 1 -5
BITMAP
03F0
0300
0300
0200
0600
0600
0400
0C00
0C00
0C00
1800
1800
1800
1000
3000
3000
2000
6000
6000
6000
4000
FC00
ENDCHAR

STARTCHAR backslash
ENCODING 92
SWIDTH 278 0
DWIDTH 7 0
BBX 3 17 3 0
BITMAP
80
80
80
80
80
80
40
40
40
40
40
40
40
40
20
20
20
ENDCHAR

STARTCHAR bracketright
ENCODING 93
SWIDTH 389 0
DWIDTH 10 0
BBX 11 22 -2 -5
BITMAP
03E0
0060
0040
00C0
00C0
00C0
0180
0180
0180
0100
0300
0300
0300
0600
0600
0600
0400
0C00
0C00
0800
1800
F800
ENDCHAR

STARTCHAR asciicircum
ENCODING 94
SWIDTH 422 0
DWIDTH 11 0
BBX 10 9 1 8
BITMAP
0400
0C00
1E00
1200
2100
2100
4080
C0C0
8040
ENDCHAR

STARTCHAR underscore
ENCODING 95
SWIDTH 500 0
DWIDTH 13 0
BBX 13 1 0 -3
BITMAP
FFF8
ENDCHAR

STARTCHAR quoteleft
ENCODING 96
SWIDTH 333 0
DWIDTH 8 0
BBX 4 5 5 12
BITMAP
30
40
40
E0
E0
ENDCHAR

STARTCHAR a
ENCODING 97
SWIDTH 500 0
DWIDTH 13 0
BBX 11 11 1 0
BITMAP
0760
08E0
10E0
30C0
60C0
60C0
C180
C180
C3A0
EDC0
7180
ENDCHAR

STARTCHAR b
ENCODING 98
SWIDTH 500 0
DWIDTH 13 0
BBX 11 17 1 0
BITMAP
3E00
0C00
0C00
0800
1800
1800
13C0
3CE0
3060
3060
6060
6060
60C0
4080
C180
C200
3C00
ENDCHAR

STARTCHAR c
ENCODING 99
SWIDTH 444 0
DWIDTH 11 0
BBX 10 11 1 0
BITMAP
0780
0840
30C0
6080
6000
C000
C000
C000
C080
6300
3C00
ENDCHAR

STARTCHAR d
ENCODING 100
SWIDTH 500 0
DWIDTH 13 0
BBX 13 17 0 0
BITMAP
0078
0018
0030
0030
0030
0020
0760
0860
10E0
30C0
60C0
60C0
C180
C380
C5A0
E9C0
7180
ENDCHAR

STARTCHAR e
ENCODING 101
SWIDTH 444 0
DWIDTH 11 0
BBX 10 11 1 0
BITMAP
0780
18C0
30C0
6180
6300
FC00
C000
C000
C080
6300
7C00
ENDCHAR

STARTCHAR f
ENCODING 102
SWIDTH 278 0
DWIDTH 7 0
BBX 16 23 -4 -6
BITMAP
000E
0013
0020
0060
0040
00C0
03F0
0180
0180
0180
0180
0300
0300
0300
0300
0600
0600
0600
0400
0C00
4800
9000
E000
ENDCHAR

STARTCHAR g
ENCODING 103
SWIDTH 500 0
DWIDTH 13 0
BBX 14 17 -1 -6
BITMAP
03C0
0C3C
1C30
1830
1830
1860
1C60
0780
0800
1800
0F00
37E0
40E0
C020
C020
60C0
1F00
ENDCHAR

STARTCHAR h
ENCODING 104
SWIDTH 500 0
DWIDTH 13 0
BBX 11 18 0 0
BITMAP
0200
1E00
0600
0C00
0C00
0C00
0800
18E0
1960
1A60
3460
38C0
30C0
30C0
6080
61A0
61E0
C180
ENDCHAR

STARTCHAR i
ENCODING 105
SWIDTH 278 0
DWIDTH 7 0
BBX 5 16 1 0
BITMAP
18
18
18
00
00
F0
30
30
60
60
60
40
C0
D0
D0
E0
ENDCHAR

STARTCHAR j
ENCODING 106
SWIDTH 278 0
DWIDTH 7 0
BBX 11 22 -4 -6
BITMAP
0060
0060
0060
0000
0000
03C0
00C0
00C0
0180
0180
0180
0100
0300
0300
0300
0600
0600
0600
0400
0C00
D800
6000
ENDCHAR

STARTCHAR k
ENCODING 107
SWIDTH 444 0
DWIDTH 11 0
BBX 11 17 1 0
BITMAP
3C00
0C00
0800
1800
1800
1800
33E0
3180
3200
2400
6C00
7C00
6400
C600
C640
C680
8300
ENDCHAR

STARTCHAR l
ENCODING 108
SWIDTH 278 0
DWIDTH 7 0
BBX 6 17 1 0
BITMAP
3C
0C
0C
18
18
18
10
30
30
30
60
60
60
60
C8
D0
E0
ENDCHAR

STARTCHAR m
ENCODING 109
SWIDTH 722 0
DWIDTH 18 0
BBX 16 11 1 0
BITMAP
79C7
32CB
34D3
38A3
29A6
71C6
6186
638C
C30D
C30F
C30C
ENDCHAR

STARTCHAR n
ENCODING 110
SWIDTH 500 0
DWIDTH 13 0
BBX 11 11 0 0
BITMAP
78E0
1960
1A60
3460
38C0
30C0
30C0
6080
61A0
61E0
C180
ENDCHAR

STARTCHAR o
ENCODING 111
SWIDTH 500 0
DWIDTH 13 0
BBX 11 11 1 0
BITMAP
0780
18C0
3060
6060
6060
E060
C0C0
C0C0
C180
6300
3C00
ENDCHAR

STARTCHAR p
ENCODING 112
SWIDTH 500 0
DWIDTH 13 0
BBX 14 16 -2 -5
BITMAP
0F78
068C
070C
060C
060C
0C08
0C18
0C10
1830
1840
1B80
3000
3000
3000
7000
F800
ENDCHAR

STARTCHAR q
ENCODING 113
SWIDTH 500 0
DWIDTH 13 0
BBX 11 16 1 -5
BITMAP
0720
08E0
30E0
30C0
60C0
E0C0
C180
C380
C380
ED80
7300
0300
0300
0200
0600
1F80
ENDCHAR

STARTCHAR r
ENCODING 114
SWIDTH 389 0
DWIDTH 10 0
BBX 9 11 1 0
BITMAP
F980
3380
3580
2800
7000
6000
6000
C000
C000
C000
8000
ENDCHAR

STARTCHAR s
ENCODING 115
SWIDTH 389 0
DWIDTH 10 0
BBX 9 11 0 0
BITMAP
0E80
1100
3100
3100
1800
0C00
0E00
8600
8600
C400
B800
ENDCHAR

STARTCHAR t
ENCODING 116
SWIDTH 278 0
DWIDTH 7 0
BBX 7 14 1 0
BITMAP
0C
08
18
7E
30
30
30
60
60
60
40
C8
D0
E0
ENDCHAR

STARTCHAR u
ENCODING 117
SWIDTH 500 0
DWIDTH 13 0
BBX 11 11 1 0
BITMAP
7060
B0C0
B0C0
20C0
6180
6180
6380
C500
CB40
D340
E380
ENDCHAR

STARTCHAR v
ENCODING 118
SWIDTH 444 0
DWIDTH 11 0
BBX 10 11 1 0
BITMAP
E0C0
70C0
3040
3040
3080
3100
3100
1200
1C00
1800
1000
ENDCHAR

STARTCHAR w
ENCODING 119
SWIDTH 667 0
DWIDTH 17 0
BBX 16 11 1 0
BITMAP
F043
3043
30C1
3141
1142
1262
1264
1C68
1870
1860
1040
ENDCHAR

STARTCHAR x
ENCODING 120
SWIDTH 444 0
DWIDTH 11 0
BBX 12 12 -1 -1
BITMAP
3C30
0C70
0680
0700
0600
0200
0700
0700
0B20
5320
E1C0
4080
ENDCHAR

STARTCHAR y
ENCODING 121
SWIDTH 444 0
DWIDTH 11 0
BBX 13 17 -2 -6
BITMAP
0410
3E18
0618
0608
0610
0610
0620
0640
0640
0280
0300
0200
0200
0400
0800
D000
E000
ENDCHAR

STARTCHAR z
ENCODING 122
SWIDTH 389 0
DWIDTH 10 0
BBX 11 11 -1 0
BITMAP
1FE0
1FC0
2080
0100
0200
0400
0800
1080
2080
7F80
FF00
ENDCHAR

STARTCHAR braceleft
ENCODING 123
SWIDTH 400 0
DWIDTH 10 0
BBX 10 22 3 -5
BITMAP
01C0
0200
0600
0C00
0C00
0C00
0C00
0C00
1800
3000
C000
4000
2000
2000
6000
6000
E000
C000
C000
8000
8000
7000
ENDCHAR

STARTCHAR bar
ENCODING 124
SWIDTH 200 0
DWIDTH 5 0
BBX 1 22 2 -5
BITMAP
80
80
80
80
80
80
80
80
80
80
80
80
80
80
80
80
80
80
80
80
80
80
ENDCHAR

STARTCHAR braceright
ENCODING 125
SWIDTH 400 0
DWIDTH 10 0
BBX 10 22 -3 -5
BITMAP
0380
0040
0040
00C0
00C0
01C0
0180
0180
0100
0100
00C0
00C0
0300
0600
0400
0C00
0C00
0C00
0C00
1800
1000
E000
ENDCHAR

STARTCHAR asciitilde
ENCODING 126
SWIDTH 541 0
DWIDTH 14 0
BBX 13 4 1 6
BITMAP
3808
7E10
87F0
80C0
ENDCHAR

STARTCHAR space
ENCODING 160
SWIDTH 250 0
DWIDTH 7 0
BBX 0 0 0 0
BITMAP
ENDCHAR

STARTCHAR Aogonek
ENCODING 161
SWIDTH 611 0
DWIDTH 15 0
BBX 15 21 -2 -4
BITMAP
0002
0004
000C
000C
0014
002C
004C
004C
008C
010C
03FC
041C
0418
0818
1018
3018
FC7E
0020
0020
0030
001E
ENDCHAR

STARTCHAR breve
ENCODING 162
SWIDTH 333 0
DWIDTH 8 0
BBX 7 4 4 13
BITMAP
82
84
F8
70
ENDCHAR

STARTCHAR Lslash
ENCODING 163
SWIDTH 556 0
DWIDTH 14 0
BBX 14 17 -1 0
BITMAP
07E0
0180
0180
0300
0320
0360
06C0
0700
0600
0E00
1400
6C00
0C04
1C04
1808
1818
FFF8
ENDCHAR

STARTCHAR currency
ENCODING 164
SWIDTH 500 0
DWIDTH 13 0
BBX 12 12 1 3
BITMAP
8010
9F20
70C0
4040
C020
8020
8020
8020
C060
4040
71C0
9F30
ENDCHAR

STARTCHAR Lcaron
ENCODING 165
SWIDTH 556 0
DWIDTH 14 0
BBX 16 17 -1 0
BITMAP
0FE7
0383
0303
0302
030C
0700
0600
0600
0E00
0C00
0C00
0C00
1C04
1804
1808
3818
FFF0
ENDCHAR

STARTCHAR Sacute
ENCODING 166
SWIDTH 500 0
DWIDTH 13 0
BBX 13 22 0 0
BITMAP
0070
0060
00C0
0080
0000
07C8
0C38
1818
1808
1808
1C00
0E00
0700
0380
01C0
00E0
40E0
4060
C060
C0C0
E1C0
9F00
ENDCHAR

STARTCHAR section
ENCODING 167
SWIDTH 500 0
DWIDTH 13 0
BBX 13 23 0 -6
BITMAP
00E0
0118
0208
0208
0200
0200
0300
0180
07C0
18C0
1060
1820
1820
0C60
0680
0600
0300
0100
0100
C100
4100
6600
1800
ENDCHAR

STARTCHAR dieresis
ENCODING 168
SWIDTH 333 0
DWIDTH 8 0
BBX 7 3 3 13
BITMAP
44
EE
44
ENDCHAR

STARTCHAR Scaron
ENCODING 169
SWIDTH 500 0
DWIDTH 13 0
BBX 14 22 0 0
BITMAP
0104
0108
01B0
00E0
0000
07C8
0C38
1818
1808
1808
1C00
0E00
0700
0380
01C0
00E0
40E0
4060
C060
C0C0
E1C0
9F00
ENDCHAR

STARTCHAR Scommaaccent
ENCODING 170
SWIDTH 500 0
DWIDTH 13 0
BBX 13 22 0 -5
BITMAP
07C8
0C38
1818
1808
1808
1C00
0E00
0700
0380
01C0
00E0
40E0
4060
C060
C0C0
E1C0
9F00
0000
1C00
0C00
0800
3000
ENDCHAR

STARTCHAR Tcaron
ENCODING 171
SWIDTH 556 0
DWIDTH 14 0
BBX 14 22 2 0
BITMAP
0218
0120
01C0
0180
0000
3FFC
638C
4304
4304
0300
0600
0600
0600
0E00
0C00
0C00
0C00
1800
1800
1800
3800
FE00
ENDCHAR

STARTCHAR Zacute
ENCODING 172
SWIDTH 556 0
DWIDTH 14 0
BBX 15 22 0 0
BITMAP
0038
0030
0060
0040
0000
0FFE
180E
101C
1038
0070
0060
00E0
01C0
0380
0300
0600
0E00
1C08
3808
3008
7030
FFF0
ENDCHAR

STARTCHAR hyphen
ENCODING 173
SWIDTH 333 0
DWIDTH 8 0
BBX 7 2 1 4
BITMAP
FE
FC
ENDCHAR

STARTCHAR Zcaron
ENCODING 174
SWIDTH 556 0
DWIDTH 14 0
BBX 15 22 0 0
BITMAP
0084
0088
00F0
00E0
0000
0FFE
180E
101C
1038
0070
0060
00E0
01C0
0380
0300
0600
0E00
1C08
3808
3008
7030
FFF0
ENDCHAR

STARTCHAR Zdotaccent
ENCODING 175
SWIDTH 556 0
DWIDTH 14 0
BBX 15 21 0 0
BITMAP
0040
00E0
0040
0000
0FFE
180C
101C
1038
0070
0060
00E0
01C0
0380
0700
0600
0E00
1C08
3808
7018
6030
FFF0
ENDCHAR

STARTCHAR degree
ENCODING 176
SWIDTH 400 0
DWIDTH 10 0
BBX 7 7 3 10
BITMAP
38
44
82
82
82
44
38
ENDCHAR

STARTCHAR aogonek
ENCODING 177
SWIDTH 500 0
DWIDTH 13 0
BBX 11 15 1 -4
BITMAP
0760
08E0
10C0
20C0
60C0
4180
C180
C380
C520
EB40
7180
0200
0200
0300
01E0
ENDCHAR

STARTCHAR ogonek
ENCODING 178
SWIDTH 333 0
DWIDTH 8 0
BBX 5 5 1 -5
BITMAP
40
80
80
C0
78
ENDCHAR

STARTCHAR lslash
ENCODING 179
SWIDTH 278 0
DWIDTH 7 0
BBX 6 17 1 0
BITMAP
3C
0C
0C
18
18
18
14
38
30
30
E0
60
60
60
C8
D0
E0
ENDCHAR

STARTCHAR acute
ENCODING 180
SWIDTH 333 0
DWIDTH 8 0
BBX 4 4 5 13
BITMAP
70
60
C0
80
ENDCHAR

STARTCHAR lcaron
ENCODING 181
SWIDTH 364 0
DWIDTH 9 0
BBX 10 17 1 0
BITMAP
3DC0
08C0
1880
1880
1B00
3000
3000
3000
2000
6000
6000
6000
C000
C000
D000
A000
C000
ENDCHAR

STARTCHAR sacute
ENCODING 182
SWIDTH 389 0
DWIDTH 10 0
BBX 9 17 0 0
BITMAP
0380
0300
0600
0400
0000
0000
0E80
1100
3100
3100
1800
0C00
0E00
8600
8600
C400
B800
ENDCHAR

STARTCHAR caron
ENCODING 183
SWIDTH 333 0
DWIDTH 8 0
BBX 7 4 4 13
BITMAP
86
88
D0
60
ENDCHAR

STARTCHAR commaaccent
ENCODING 184
SWIDTH 333 0
DWIDTH 8 0
BBX 4 4 2 -5
BITMAP
70
30
20
C0
ENDCHAR

STARTCHAR scaron
ENCODING 185
SWIDTH 389 0
DWIDTH 10 0
BBX 10 17 0 0
BITMAP
0840
0880
0500
0600
0000
0000
0E80
1100
3100
3100
1800
0C00
0E00
8600
8600
C400
B800
ENDCHAR

STARTCHAR scommaaccent
ENCODING 186
SWIDTH 389 0
DWIDTH 10 0
BBX 9 16 0 -5
BITMAP
0E80
1100
3100
3100
1800
0C00
0E00
8600
8600
C400
9800
2000
7000
3000
2000
C000
ENDCHAR

STARTCHAR tcaron
ENCODING 187
SWIDTH 364 0
DWIDTH 9 0
BBX 10 18 1 0
BITMAP
0080
01C0
00C0
0080
0980
1A00
3000
FC00
3000
2000
6000
6000
6000
C000
C000
D000
B000
C000
ENDCHAR

STARTCHAR zacute
ENCODING 188
SWIDTH 389 0
DWIDTH 10 0
BBX 11 17 -1 0
BITMAP
01C0
0180
0100
0200
0000
0000
1FE0
1FC0
2080
0100
0200
0400
0800
1000
2080
7F80
FF00
ENDCHAR

STARTCHAR hungarumlaut
ENCODING 189
SWIDTH 333 0
DWIDTH 8 0
BBX 7 4 4 13
BITMAP
7E
CC
88
90
ENDCHAR

STARTCHAR zcaron
ENCODING 190
SWIDTH 389 0
DWIDTH 10 0
BBX 12 17 -1 0
BITMAP
0210
0260
03C0
0380
0000
0000
1FE0
1FC0
2080
0100
0200
0400
0800
1000
2080
7F80
FF00
ENDCHAR

STARTCHAR zdotaccent
ENCODING 191
SWIDTH 389 0
DWIDTH 10 0
BBX 10 17 0 0
BITMAP
0100
0380
0100
0000
0000
0000
3FC0
3F80
4100
0200
0400
0800
1000
2000
4080
FF00
FF00
ENDCHAR

STARTCHAR Racute
ENCODING 192
SWIDTH 611 0
DWIDTH 15 0
BBX 15 22 -1 0
BITMAP
001C
0030
0030
0020
0000
07F8
038C
0306
0306
0306
070E
060C
0638
06E0
0C60
0C60
0C30
1830
1830
1838
3818
FE1E
ENDCHAR

STARTCHAR Aacute
ENCODING 193
SWIDTH 611 0
DWIDTH 15 0
BBX 17 22 -1 0
BITMAP
000380
000300
000600
000400
000400
000400
000C00
000C00
001C00
002800
005800
005800
009800
011800
021800
07F800
041800
081800
103800
303800
303800
F8FE00
ENDCHAR

STARTCHAR Acircumflex
ENCODING 194
SWIDTH 611 0
DWIDTH 15 0
BBX 17 21 -1 0
BITMAP
000700
000D80
001880
001080
000400
000C00
000C00
001C00
002800
005800
005800
009800
011800
021800
07F800
041800
081800
103800
303800
303800
F8FE00
ENDCHAR

STARTCHAR Abreve
ENCODING 195
SWIDTH 611 0
DWIDTH 15 0
BBX 18 22 -1 0
BITMAP
001040
001080
000F80
000E00
000000
000400
000C00
000C00
001C00
002800
005800
005800
009800
011800
021800
07F800
041800
081800
103800
303800
303800
F8FE00
ENDCHAR

STARTCHAR Adieresis
ENCODING 196
SWIDTH 611 0
DWIDTH 15 0
BBX 18 21 -1 0
BITMAP
000880
001DC0
000880
000000
000400
000400
000C00
001C00
002C00
002C00
004C00
008C00
011800
011800
03F800
041800
081800
081800
101800
303800
F8FE00
ENDCHAR

STARTCHAR Lacute
ENCODING 197
SWIDTH 556 0
DWIDTH 14 0
BBX 14 22 -1 0
BITMAP
0070
0060
0040
00C0
0000
07F0
0180
0380
0300
0300
0300
0700
0600
0600
0E00
0C00
0C00
0C04
1C04
1808
1818
FFF8
ENDCHAR

STARTCHAR Cacute
ENCODING 198
SWIDTH 667 0
DWIDTH 17 0
BBX 16 22 1 0
BITMAP
001C
0018
0030
0020
0000
00F9
0307
0C03
1C02
3802
3000
7000
6000
E000
E000
E000
E000
E000
7004
3008
3C30
0FC0
ENDCHAR

STARTCHAR Ccedilla
ENCODING 199
SWIDTH 667 0
DWIDTH 17 0
BBX 16 22 1 -5
BITMAP
00FD
0303
0E03
1C01
3801
3000
7000
6000
E000
E000
E000
E000
E000
7004
3008
1C30
0FC0
0200
0780
0180
0380
1E00
ENDCHAR

STARTCHAR Ccaron
ENCODING 200
SWIDTH 667 0
DWIDTH 17 0
BBX 16 22 1 0
BITMAP
0041
0022
002C
0038
0000
00F9
0307
0C03
1802
3802
3000
7000
6000
E000
E000
E000
E000
E000
7004
3008
3C30
0FC0
ENDCHAR

STARTCHAR Eacute
ENCODING 201
SWIDTH 611 0
DWIDTH 15 0
BBX 17 22 -1 0
BITMAP
001C00
001800
001000
002000
000000
07FF80
018300
018100
030100
030000
030800
070800
061000
07F000
061000
0C1000
0C1000
0C0200
1C0200
180400
181C00
FFF800
ENDCHAR

STARTCHAR Eogonek
ENCODING 202
SWIDTH 611 0
DWIDTH 15 0
BBX 16 22 0 -5
BITMAP
0FFF
0303
0302
0702
0600
0610
0610
0C30
0FE0
0C20
1C20
1820
1804
1804
3808
3838
FFF8
0080
0080
0080
00C0
0078
ENDCHAR

STARTCHAR Edieresis
ENCODING 203
SWIDTH 611 0
DWIDTH 15 0
BBX 16 21 0 0
BITMAP
0088
01DC
0088
0000
0FFF
0306
0302
0702
0600
0610
0E10
0C20
0FE0
0C20
1C20
1820
1804
3808
3008
3038
FFF0
ENDCHAR

STARTCHAR Ecaron
ENCODING 204
SWIDTH 611 0
DWIDTH 15 0
BBX 17 22 -1 0
BITMAP
004300
002400
003800
003800
000000
07FF80
018300
018100
030100
030000
030800
070800
061000
07F000
061000
0C1000
0C1000
0C0200
1C0200
180400
181C00
FFF800
ENDCHAR

STARTCHAR Iacute
ENCODING 205
SWIDTH 333 0
DWIDTH 8 0
BBX 11 22 -1 0
BITMAP
00E0
00C0
0080
0100
0000
07E0
0180
0180
0300
0300
0300
0700
0600
0600
0600
0C00
0C00
0C00
1C00
1800
3800
FE00
ENDCHAR

STARTCHAR Icircumflex
ENCODING 206
SWIDTH 333 0
DWIDTH 8 0
BBX 12 22 -1 0
BITMAP
0060
00E0
0120
0610
0000
07E0
0180
0180
0300
0300
0300
0700
0600
0600
0600
0C00
0C00
0C00
1C00
1800
3800
FE00
ENDCHAR

STARTCHAR Dcaron
ENCODING 207
SWIDTH 722 0
DWIDTH 18 0
BBX 19 22 -1 0
BITMAP
002100
002200
003C00
003800
000000
07FC00
018300
018180
0300C0
0300E0
0300E0
0700E0
0600E0
0600E0
0600E0
0C00C0
0C01C0
0C0180
1C0300
180600
181C00
FFE000
ENDCHAR

STARTCHAR Dcroat
ENCODING 208
SWIDTH 722 0
DWIDTH 18 0
BBX 18 17 0 0
BITMAP
0FF800
030600
030300
070180
060180
0601C0
0601C0
0C01C0
3FE1C0
0C01C0
1C0180
180380
180300
380600
300C00
303800
FFC000
ENDCHAR

STARTCHAR Nacute
ENCODING 209
SWIDTH 667 0
DWIDTH 17 0
BBX 20 22 -1 0
BITMAP
000E00
000C00
000800
001000
000000
0F01F0
0180C0
038080
028080
02C080
02C100
04E100
046100
046100
083200
083200
083A00
081C00
101C00
100C00
300C00
FC0800
ENDCHAR

STARTCHAR Ncaron
ENCODING 210
SWIDTH 667 0
DWIDTH 17 0
BBX 20 22 -1 0
BITMAP
001080
001100
001E00
001C00
000000
0F01F0
0180C0
038080
028080
02C080
02C100
04E100
046100
046100
083200
083200
083A00
081C00
101C00
100C00
300C00
FC0800
ENDCHAR

STARTCHAR Oacute
ENCODING 211
SWIDTH 722 0
DWIDTH 18 0
BBX 16 22 2 0
BITMAP
000C
0018
0018
0010
0020
00F8
030E
0606
0C03
1803
3003
7003
7003
6007
E006
E00E
E00C
E01C
6018
6030
30E0
0F00
ENDCHAR

STARTCHAR Ocircumflex
ENCODING 212
SWIDTH 722 0
DWIDTH 18 0
BBX 16 21 2 0
BITMAP
001C
002C
00C4
0000
00F8
030E
0606
0C03
1803
3003
7003
7003
6007
E006
E00E
E00C
E01C
6018
6030
30E0
0F00
ENDCHAR

STARTCHAR Ohungarumlaut
ENCODING 213
SWIDTH 722 0
DWIDTH 18 0
BBX 16 22 2 0
BITMAP
003B
0036
0064
0048
0048
00F8
030E
0606
0C03
1803
3003
7003
7003
6007
E006
E00E
E00C
E01C
6018
6030
30E0
0F00
ENDCHAR

STARTCHAR Odieresis
ENCODING 214
SWIDTH 722 0
DWIDTH 18 0
BBX 16 21 2 0
BITMAP
0044
00EE
0044
0000
00F8
030E
0606
0C03
1803
3003
7003
7003
6007
E006
E006
E00C
E00C
6018
7030
30E0
0F00
ENDCHAR

STARTCHAR multiply
ENCODING 215
SWIDTH 675 0
DWIDTH 17 0
BBX 10 10 4 3
BITMAP
C040
6180
3300
1E00
0C00
1A00
3300
6180
C0C0
8040
ENDCHAR

STARTCHAR Rcaron
ENCODING 216
SWIDTH 611 0
DWIDTH 15 0
BBX 15 22 -1 0
BITMAP
00C2
004C
0078
0070
0000
07F8
038C
0306
0306
0306
070E
060C
0638
06E0
0C60
0C60
0C30
1830
1830
1838
3818
FE1E
ENDCHAR

STARTCHAR Uring
ENCODING 217
SWIDTH 722 0
DWIDTH 18 0
BBX 18 22 3 0
BITMAP
007000
008800
008800
008800
007000
FF0FC0
180300
380200
300200
300200
300400
600400
600400
600800
E00800
C00800
C01000
C01000
C02000
602000
70C000
1F0000
ENDCHAR

STARTCHAR Uacute
ENCODING 218
SWIDTH 722 0
DWIDTH 18 0
BBX 18 22 3 0
BITMAP
001C00
003000
003000
002000
000000
FF0FC0
180300
380200
300200
300400
300400
600400
600400
600800
E00800
C00800
C01000
C01000
C02000
602000
70C000
1F0000
ENDCHAR

STARTCHAR Uhungarumlaut
ENCODING 219
SWIDTH 722 0
DWIDTH 18 0
BBX 18 22 3 0
BITMAP
007E00
00CC00
00C800
009000
000000
FF0FC0
180300
380200
300200
300400
300400
600400
600400
600800
E00800
C00800
C01000
C01000
C02000
602000
70C000
1F0000
ENDCHAR

STARTCHAR Udieresis
ENCODING 220
SWIDTH 722 0
DWIDTH 18 0
BBX 17 21 3 0
BITMAP
008800
01DC00
008800
000000
FF0F80
180200
380200
300400
300400
300400
600400
600800
600800
E00800
C01000
C01000
C01000
C02000
606000
70C000
1F0000
ENDCHAR

STARTCHAR Yacute
ENCODING 221
SWIDTH 556 0
DWIDTH 14 0
BBX 15 22 2 0
BITMAP
0070
0060
0040
0080
0000
7E7E
1818
1810
1820
0C40
0C40
0C80
0700
0600
0600
0E00
0C00
0C00
0C00
1800
1C00
FE00
ENDCHAR

STARTCHAR Tcommaaccent
ENCODING 222
SWIDTH 556 0
DWIDTH 14 0
BBX 14 22 2 -5
BITMAP
7FFC
630C
4300
8308
0700
0600
0600
0600
0C00
0C00
0C00
1C00
1800
1800
3800
3800
FE00
0000
7000
3000
2000
C000
ENDCHAR

STARTCHAR germandbls
ENCODING 223
SWIDTH 500 0
DWIDTH 13 0
BBX 16 22 -4 -5
BITMAP
001C
0062
00C3
00C3
0083
0186
018C
01B0
030C
0306
0306
0606
0606
064C
04CC
0C98
0C60
0800
1800
1000
B000
C000
ENDCHAR

STARTCHAR racute
ENCODING 224
SWIDTH 389 0
DWIDTH 10 0
BBX 9 17 1 0
BITMAP
0380
0300
0200
0400
0000
0000
F980
3380
3580
2800
7000
7000
6000
C000
C000
C000
8000
ENDCHAR

STARTCHAR aacute
ENCODING 225
SWIDTH 500 0
DWIDTH 13 0
BBX 11 17 1 0
BITMAP
00C0
0180
0100
0300
0000
0000
0760
08E0
10E0
30C0
60C0
40C0
C180
C180
C7A0
EDC0
7180
ENDCHAR

STARTCHAR acircumflex
ENCODING 226
SWIDTH 500 0
DWIDTH 13 0
BBX 11 17 1 0
BITMAP
00C0
01C0
0260
0420
0000
0000
0760
08E0
10E0
30C0
60C0
40C0
C180
C180
C7A0
EDC0
7180
ENDCHAR

STARTCHAR abreve
ENCODING 227
SWIDTH 500 0
DWIDTH 13 0
BBX 12 17 1 0
BITMAP
0410
0420
03E0
0380
0000
0000
0760
08E0
10E0
30C0
60C0
40C0
C180
C180
C7A0
EDC0
7180
ENDCHAR

STARTCHAR adieresis
ENCODING 228
SWIDTH 500 0
DWIDTH 13 0
BBX 12 16 0 0
BITMAP
0220
0770
0220
0000
0000
0360
0CE0
1860
3040
60C0
60C0
C0C0
C180
C3A0
E5E0
79C0
ENDCHAR

STARTCHAR lacute
ENCODING 229
SWIDTH 278 0
DWIDTH 7 0
BBX 8 22 1 0
BITMAP
07
06
04
08
00
3C
0C
0C
18
18
18
10
30
30
30
60
60
60
40
C8
D0
E0
ENDCHAR

STARTCHAR cacute
ENCODING 230
SWIDTH 444 0
DWIDTH 11 0
BBX 10 17 1 0
BITMAP
01C0
0180
0300
0200
0000
0000
0780
1840
30C0
6080
6000
C000
C000
C000
C080
6300
7C00
ENDCHAR

STARTCHAR ccedilla
ENCODING 231
SWIDTH 444 0
DWIDTH 11 0
BBX 11 16 0 -5
BITMAP
03C0
0C20
1860
3040
3000
6000
6000
6000
6040
3180
3E00
1000
3C00
0C00
0C00
F000
ENDCHAR

STARTCHAR ccaron
ENCODING 232
SWIDTH 444 0
DWIDTH 11 0
BBX 12 17 1 0
BITMAP
0410
0460
02C0
0380
0000
0000
0780
1840
30C0
6080
6000
C000
C000
C000
C080
6300
7C00
ENDCHAR

STARTCHAR eacute
ENCODING 233
SWIDTH 444 0
DWIDTH 11 0
BBX 10 17 1 0
BITMAP
01C0
0180
0300
0200
0000
0000
0780
18C0
30C0
6180
6300
FC00
C000
C000
C080
E300
7C00
ENDCHAR

STARTCHAR eogonek
ENCODING 234
SWIDTH 444 0
DWIDTH 11 0
BBX 10 15 1 -4
BITMAP
0780
08C0
30C0
3080
6300
FE00
C000
C000
E080
7300
3C00
1000
1000
1800
0F00
ENDCHAR

STARTCHAR edieresis
ENCODING 235
SWIDTH 444 0
DWIDTH 11 0
BBX 11 16 1 0
BITMAP
0440
0EE0
0440
0000
0000
0780
18C0
30C0
6080
6300
FC00
C000
C000
C080
E300
7C00
ENDCHAR

STARTCHAR ecaron
ENCODING 236
SWIDTH 444 0
DWIDTH 11 0
BBX 11 17 1 0
BITMAP
0420
0440
0680
0300
0000
0000
0780
18C0
30C0
6180
6300
FC00
C000
C000
C080
E300
7C00
ENDCHAR

STARTCHAR iacute
ENCODING 237
SWIDTH 278 0
DWIDTH 7 0
BBX 7 17 1 0
BITMAP
0E
0C
08
10
00
00
78
30
30
30
20
60
60
60
C8
D0
E0
ENDCHAR

STARTCHAR icircumflex
ENCODING 238
SWIDTH 278 0
DWIDTH 7 0
BBX 8 17 1 0
BITMAP
06
0A
13
61
00
00
78
30
30
30
20
60
60
60
C8
D0
E0
ENDCHAR

STARTCHAR dcaron
ENCODING 239
SWIDTH 608 0
DWIDTH 15 0
BBX 17 17 1 0
BITMAP
007980
001380
003180
003100
003600
006000
076000
08E000
10C000
30C000
60C000
60C000
C18000
C38000
C5A000
E94000
718000
ENDCHAR

STARTCHAR dcroat
ENCODING 240
SWIDTH 500 0
DWIDTH 13 0
BBX 14 17 1 0
BITMAP
0078
0018
0030
03FC
0030
0060
0760
08E0
10C0
30C0
60C0
60C0
C180
C380
C5A0
E9C0
7180
ENDCHAR

STARTCHAR nacute
ENCODING 241
SWIDTH 500 0
DWIDTH 13 0
BBX 11 17 1 0
BITMAP
01C0
0100
0200
0200
0000
0000
F9C0
32C0
34C0
28C0
7180
6180
6180
C100
C360
C3C0
8300
ENDCHAR

STARTCHAR ncaron
ENCODING 242
SWIDTH 500 0
DWIDTH 13 0
BBX 12 17 1 0
BITMAP
0430
0640
0380
0300
0000
0000
F9C0
32C0
34C0
28C0
7180
6180
6180
C100
C360
C3C0
8300
ENDCHAR

STARTCHAR oacute
ENCODING 243
SWIDTH 500 0
DWIDTH 13 0
BBX 11 17 1 0
BITMAP
01C0
0180
0100
0200
0000
0000
0780
1840
3060
6060
6060
C060
C0C0
C0C0
C180
6300
3C00
ENDCHAR

STARTCHAR ocircumflex
ENCODING 244
SWIDTH 500 0
DWIDTH 13 0
BBX 11 17 1 0
BITMAP
00C0
01E0
0260
0C20
0000
0000
0780
1840
3060
6060
6060
C060
C0C0
C0C0
C180
6300
3C00
ENDCHAR

STARTCHAR ohungarumlaut
ENCODING 245
SWIDTH 500 0
DWIDTH 13 0
BBX 13 17 1 0
BITMAP
01F8
0330
0260
0440
0000
0000
0780
1840
3060
6060
6060
C060
C0C0
C0C0
C180
6300
3C00
ENDCHAR

STARTCHAR odieresis
ENCODING 246
SWIDTH 500 0
DWIDTH 13 0
BBX 12 16 0 0
BITMAP
0220
0770
0220
0000
0000
0780
0840
3060
7060
6060
E060
C0C0
C0C0
C180
6300
3C00
ENDCHAR

STARTCHAR divide
ENCODING 247
SWIDTH 675 0
DWIDTH 17 0
BBX 13 9 3 4
BITMAP
0600
0600
0000
0000
FFF8
0000
0000
0600
0600
ENDCHAR

STARTCHAR rcaron
ENCODING 248
SWIDTH 389 0
DWIDTH 10 0
BBX 11 17 1 0
BITMAP
0820
04C0
0580
0700
0000
0000
F980
3380
3580
2800
7000
7000
6000
C000
C000
C000
8000
ENDCHAR

STARTCHAR uring
ENCODING 249
SWIDTH 500 0
DWIDTH 13 0
BBX 11 17 1 0
BITMAP
0380
0440
0440
0440
0380
0000
7060
B060
B0C0
30C0
61C0
6180
6380
C580
CB20
D340
E380
ENDCHAR

STARTCHAR uacute
ENCODING 250
SWIDTH 500 0
DWIDTH 13 0
BBX 11 17 1 0
BITMAP
01C0
0100
0300
0200
0000
0000
7060
B0C0
B0C0
20C0
6180
6180
6380
C500
CB40
D340
E380
ENDCHAR

STARTCHAR uhungarumlaut
ENCODING 251
SWIDTH 500 0
DWIDTH 13 0
BBX 12 17 1 0
BITMAP
0770
0660
04C0
0880
0000
0000
7060
B0C0
B0C0
30C0
6180
6180
6380
C580
C920
D340
E380
ENDCHAR

STARTCHAR udieresis
ENCODING 252
SWIDTH 500 0
DWIDTH 13 0
BBX 11 17 1 0
BITMAP
0440
0EE0
0440
0000
0000
0000
70C0
B0C0
B0C0
2080
6180
6180
6380
C500
CB40
D340
E380
ENDCHAR

STARTCHAR yacute
ENCODING 253
SWIDTH 444 0
DWIDTH 11 0
BBX 13 23 -2 -6
BITMAP
0070
00C0
00C0
0080
0000
0000
0418
1E18
0608
0608
0608
0610
0220
0220
0340
0380
0300
0200
0200
0400
0800
D000
E000
ENDCHAR

STARTCHAR tcommaaccent
ENCODING 254
SWIDTH 278 0
DWIDTH 7 0
BBX 8 19 -1 -5
BITMAP
02
06
0C
3F
0C
0C
18
18
18
10
30
34
34
38
00
70
30
20
C0
ENDCHAR

STARTCHAR dotaccent
ENCODING 255
SWIDTH 333 0
DWIDTH 8 0
BBX 3 3 5 13
BITMAP
40
E0
40
ENDCHAR
ENDFONT
